<?xml version="1.0" standalone="no"?>
<!DOCTYPE svg PUBLIC "-//W3C//DTD SVG 20010904//EN"
 "http://www.w3.org/TR/2001/REC-SVG-20010904/DTD/svg10.dtd">
<svg version="1.0" xmlns="http://www.w3.org/2000/svg"
 width="1004.000000pt" height="668.000000pt" viewBox="0 0 1004.000000 668.000000"
 preserveAspectRatio="xMidYMid meet">
<metadata>
Created by potrace 1.16, written by Peter Selinger 2001-2019
</metadata>
<g transform="translate(0.000000,668.000000) scale(0.100000,-0.100000)"
fill="#000000" stroke="none">
<path d="M2360 5250 l0 -800 40 0 c37 0 40 2 40 28 -3 415 5 1292 12 1292 11
0 10 63 -3 97 -7 19 -7 29 0 31 6 2 11 9 11 17 0 7 8 12 18 12 139 0 272 6
252 13 -17 5 -1 8 50 8 66 -1 69 -2 30 -8 l-45 -7 40 -2 c22 -2 47 -4 55 -5 8
-2 26 1 40 5 l25 7 -25 2 c-24 2 -23 3 5 10 48 12 955 12 955 0 0 -7 -155 -10
-462 -10 -254 0 -459 -2 -456 -5 2 -3 209 -5 458 -6 250 -1 460 -3 467 -6 7
-3 14 -19 14 -37 2 -29 2 -28 9 9 l7 40 2 -40 c1 -22 3 -355 4 -740 l2 -700
378 -3 377 -2 0 487 -1 488 -332 313 -332 312 -817 0 -818 0 0 -800z"/>
<path d="M2770 5833 c0 -26 16 -48 24 -34 11 18 26 13 26 -9 0 -11 -5 -20 -11
-20 -11 0 -9 -19 7 -67 5 -15 4 -15 -5 -3 -9 13 -11 13 -11 -2 0 -10 5 -18 10
-18 6 0 10 -6 10 -14 0 -7 10 -16 23 -18 28 -5 47 0 47 14 0 6 -7 5 -16 -3
-13 -10 -12 -6 3 24 23 46 40 47 59 2 11 -27 20 -35 42 -36 35 -2 34 -2 56 7
17 7 18 4 12 -29 -6 -34 -5 -37 16 -37 19 0 20 2 8 10 -13 8 -13 10 3 11 9 1
22 2 28 3 6 0 17 9 24 19 9 13 20 16 39 11 14 -3 32 -2 39 3 13 10 73 10 83 0
3 -3 12 -3 20 0 27 10 62 -6 68 -32 6 -23 11 -25 54 -24 44 2 45 2 12 8 l-35
6 44 15 c34 11 45 12 49 2 2 -7 10 -12 18 -12 10 0 15 11 14 38 0 20 3 53 6
72 5 31 2 37 -25 53 -19 11 -29 23 -24 30 4 7 -1 5 -12 -3 -21 -18 -175 -22
-188 -5 -6 7 -10 6 -14 -2 -2 -7 -11 -13 -19 -13 -9 0 -12 5 -9 10 3 6 2 10
-4 10 -5 0 -18 -13 -28 -30 -21 -35 -24 -36 -41 -10 -9 15 -9 20 0 20 6 0 9 2
7 5 -8 8 -80 15 -75 7 2 -4 -9 -8 -25 -9 -15 -1 -31 2 -34 7 -3 5 -12 7 -20 3
-8 -3 -15 0 -15 6 0 6 -3 10 -7 10 -26 -4 -41 4 -46 23 -5 18 -8 19 -22 8 -10
-9 -19 -10 -23 -4 -9 12 -92 15 -92 2 0 -5 -9 -4 -19 2 -27 14 -31 13 -31 -7z"/>
<path d="M7840 4970 l0 -520 773 -2 772 -3 3 -1472 2 -1473 -32 -2 c-18 -1
-1117 -2 -2443 -2 l-2410 -1 -3 -747 -2 -748 2770 0 2770 0 0 2433 0 2432
-311 313 -311 312 -789 0 -789 0 0 -520z"/>
<path d="M1518 4283 c-41 -5 -98 -58 -98 -93 0 -11 -8 -41 -18 -68 -10 -26
-15 -55 -11 -62 4 -8 13 -35 20 -60 7 -25 16 -50 21 -56 5 -7 2 -17 -7 -24 -8
-7 -14 -25 -13 -41 1 -15 4 -26 7 -24 2 3 12 -2 22 -11 14 -12 16 -21 8 -41
-12 -33 -48 -61 -71 -55 -26 7 -22 18 12 34 36 16 39 35 6 47 -13 5 -26 19
-29 30 -3 15 -13 21 -31 21 -32 0 -33 6 -4 30 20 15 21 21 10 44 -21 48 -74
32 -110 -34 -34 -64 -35 -94 -2 -150 37 -63 56 -83 98 -104 29 -15 32 -15 32
-1 0 9 4 14 10 10 5 -3 7 -12 4 -20 -8 -21 43 -43 117 -49 35 -3 58 -3 52 0
-23 10 -13 24 17 24 17 0 30 -4 30 -10 0 -19 48 -10 101 18 58 31 109 74 127
108 12 23 -1 37 -80 87 -33 21 -40 54 -9 37 29 -15 31 -13 31 25 0 22 -6 38
-17 44 -10 6 -12 11 -5 11 14 0 16 77 2 130 -34 135 -33 133 -85 172 -50 38
-57 39 -137 31z m81 -54 l34 -20 -32 -20 c-21 -13 -31 -26 -31 -44 0 -22 4
-25 34 -25 19 0 38 5 41 10 11 18 25 0 25 -34 0 -25 -7 -38 -25 -50 -31 -20
-46 -21 -39 -1 8 19 -3 19 -21 1 -12 -12 -10 -16 18 -30 31 -15 33 -14 49 7
28 36 33 -3 8 -57 -12 -25 -23 -46 -24 -46 0 0 -19 -7 -41 -15 -34 -12 -36
-14 -14 -15 60 -1 85 -11 96 -41 6 -16 7 -27 2 -23 -6 3 -7 -4 -4 -19 4 -15 1
-30 -9 -40 -9 -8 -16 -20 -16 -25 0 -5 -26 -27 -58 -50 -43 -30 -62 -38 -74
-31 -13 7 -18 4 -23 -11 -9 -27 -22 -25 -29 5 -4 14 -14 26 -24 26 -9 1 -21 2
-27 4 -5 1 -14 3 -18 3 -4 1 -3 11 3 23 8 14 19 19 38 17 22 -2 28 1 30 22 2
13 22 41 43 62 47 46 52 86 14 124 -36 36 -75 96 -75 116 0 12 8 18 23 18 13
0 32 9 42 20 15 16 15 22 5 35 -17 21 -36 19 -60 -7 l-20 -22 0 38 c0 30 8 45
38 76 43 45 72 49 121 19z"/>
<path d="M370 2730 l0 -1510 -186 0 -185 0 3 -53 3 -52 60 -5 c50 -5 56 -7 38
-16 -17 -7 -3 -9 57 -9 44 0 72 3 63 7 -12 4 -6 7 18 7 20 1 39 4 43 8 10 10
299 12 311 2 6 -4 57 -4 113 2 57 5 107 7 112 4 5 -3 11 -1 15 5 14 23 25 7
24 -37 -2 -47 -2 -47 -9 -13 -6 31 -8 28 -9 -25 -1 -33 -3 -105 -5 -160 -2
-55 0 -109 5 -120 5 -12 8 32 8 113 -1 73 2 136 5 139 3 4 6 -224 6 -505 l0
-512 125 0 125 0 -4 452 c-3 248 -1 461 3 472 4 12 4 93 1 181 -3 88 -3 170 2
182 4 14 3 23 -5 26 -8 2 -9 19 -1 68 6 35 8 75 4 89 -5 22 -13 25 -53 28
l-47 3 -1 -138 c-1 -85 -4 -127 -9 -108 -7 29 -8 29 -10 5 -1 -14 -2 -28 -2
-31 1 -4 -27 -5 -61 -2 -34 3 -155 5 -269 6 l-206 0 11 25 c9 20 9 26 -1 30
-9 3 -12 266 -10 1245 2 683 5 1107 8 942 l5 -300 5 295 c3 162 3 324 0 360
l-4 65 -7 -60 c-4 -39 -6 -3 -7 105 -1 110 2 160 8 150 8 -12 10 -10 11 10 1
14 1 31 0 38 -1 8 16 12 61 11 61 -1 138 -16 93 -18 -19 -1 -19 -1 1 -15 13
-9 42 -14 74 -14 33 1 46 4 34 8 -19 7 -18 7 1 12 17 5 17 6 -5 9 -14 2 38 6
115 9 l140 5 3 48 3 47 -310 0 -311 0 0 -1510z"/>
<path d="M2060 4119 c0 -60 3 -80 13 -76 6 2 12 20 12 39 0 52 10 55 29 8 18
-46 29 -45 53 8 l17 37 4 -47 c2 -34 7 -48 18 -48 11 0 14 17 14 80 0 72 -2
80 -19 80 -14 0 -24 -13 -37 -45 -9 -25 -22 -44 -27 -42 -6 2 -17 22 -26 45
-10 28 -21 42 -33 42 -16 0 -18 -10 -18 -81z"/>
<path d="M2960 4120 l0 -80 43 0 c30 0 49 6 60 18 19 21 22 48 6 57 -6 4 -7
19 -4 37 9 38 -5 48 -62 48 l-43 0 0 -80z"/>
<path d="M910 4040 c0 -6 -12 -10 -27 -10 -27 -1 -27 -1 -9 -15 10 -8 23 -12
27 -9 5 3 9 -4 9 -15 0 -16 -6 -19 -35 -16 -27 2 -35 -1 -35 -13 -1 -15 -2
-15 -14 1 -11 14 -24 17 -54 14 -35 -4 -41 -2 -51 19 -13 30 -14 34 -2 34 5 0
12 -10 16 -22 4 -15 8 -18 12 -10 8 20 -16 41 -46 39 -27 -2 -28 -4 -30 -66
-3 -75 -5 -81 -30 -74 -14 3 -17 12 -15 35 2 17 9 37 15 44 7 9 5 14 -8 17
-14 4 -13 5 5 6 24 1 27 8 12 31 -8 13 -10 12 -10 -2 0 -10 -4 -18 -10 -18 -5
0 -10 7 -10 15 0 8 -7 15 -15 15 -8 0 -15 -5 -15 -11 0 -6 -7 -9 -15 -5 -13 5
-14 2 -4 -15 8 -16 8 -23 0 -28 -16 -10 -9 -130 8 -140 7 -5 22 -6 34 -3 16 4
19 2 14 -12 -4 -10 -7 -24 -7 -32 0 -8 -7 -14 -15 -14 -15 0 -21 -26 -7 -33 4
-2 23 4 42 14 19 10 30 18 25 19 -16 0 -13 40 3 40 11 0 12 3 3 14 -9 11 -8
15 6 20 10 4 22 1 28 -7 7 -9 24 -12 54 -9 37 4 43 2 38 -11 -3 -9 1 -18 9
-21 10 -4 15 0 13 12 -3 24 11 53 23 46 5 -3 2 -11 -7 -17 -13 -10 -12 -12 10
-12 14 0 25 5 25 10 0 6 4 5 8 -2 11 -18 63 -28 60 -12 -2 8 3 13 11 11 9 -2
11 3 7 15 -6 15 -5 15 14 -2 20 -18 20 -18 20 48 0 59 -2 66 -17 60 -15 -5
-16 -3 -5 8 14 16 16 69 2 69 -5 0 -10 -6 -10 -12 0 -9 -3 -9 -8 -2 -10 15
-42 25 -42 14z"/>
<path d="M843 3731 c-9 -14 -9 -29 -3 -53 6 -18 10 -52 10 -75 0 -31 4 -43 14
-43 8 0 18 5 21 10 4 6 11 7 17 4 7 -5 9 2 4 20 -4 15 -2 26 4 26 5 0 10 -19
10 -42 0 -29 3 -38 9 -29 12 19 33 3 26 -20 -5 -14 -2 -19 10 -19 13 0 16 6
11 26 -5 17 -3 23 4 19 7 -4 10 25 10 88 0 93 0 95 -25 99 -20 4 -23 2 -15 -8
9 -10 6 -11 -9 -7 -24 6 -27 -3 -7 -23 17 -17 30 -19 20 -2 -4 7 -3 8 4 4 6
-4 8 -14 5 -22 -4 -11 -9 -12 -16 -5 -6 6 -19 11 -28 11 -9 0 -19 7 -23 15 -3
8 -1 15 4 15 5 0 7 7 3 16 -4 11 -8 12 -13 4 -5 -9 -9 -9 -14 -1 -10 16 -20
14 -33 -8z"/>
<path d="M6120 3311 l0 -40 -31 11 c-59 20 -110 -40 -94 -111 10 -47 34 -61
98 -59 l57 2 0 118 c0 98 -3 118 -15 118 -11 0 -15 -11 -15 -39z"/>
<path d="M1365 3265 c-33 -32 -35 -105 -5 -135 27 -27 90 -27 115 0 22 24 12
39 -15 22 -27 -16 -65 -15 -80 3 -20 24 -2 35 56 35 51 0 54 1 54 25 0 33 -42
75 -75 75 -14 0 -37 -11 -50 -25z"/>
<path d="M1546 3268 c-21 -18 -27 -32 -28 -65 -1 -63 23 -93 72 -93 28 0 47 7
62 22 15 15 18 23 9 26 -7 2 -18 -1 -24 -7 -15 -15 -60 -14 -75 1 -27 27 -13
38 48 38 57 0 60 1 60 24 0 33 -29 65 -66 72 -23 4 -37 0 -58 -18z"/>
<path d="M1986 3267 c-20 -20 -26 -36 -26 -72 0 -62 27 -89 81 -82 46 6 54 0
32 -25 -20 -22 -41 -23 -70 -3 -25 18 -42 3 -23 -20 16 -19 90 -19 116 -1 17
13 19 27 19 113 0 97 0 98 -25 100 -14 1 -37 5 -52 9 -21 5 -33 0 -52 -19z"/>
<path d="M2253 3266 c-23 -20 -28 -32 -28 -69 0 -57 25 -87 72 -87 41 0 73 15
73 35 0 19 -15 19 -43 0 -20 -13 -25 -13 -45 1 -41 29 -28 44 39 44 l62 0 -7
33 c-12 65 -73 86 -123 43z"/>
<path d="M2595 3265 c-33 -32 -35 -101 -5 -133 25 -27 90 -30 114 -6 32 32 13
46 -27 19 -18 -12 -27 -12 -47 -2 -45 23 -31 42 33 45 55 3 57 4 57 30 0 33
-8 45 -37 61 -34 17 -62 13 -88 -14z"/>
<path d="M3058 3270 c-31 -23 -41 -68 -27 -110 12 -34 35 -50 74 -50 39 0 62
16 74 51 31 89 -52 164 -121 109z"/>
<path d="M3432 3275 c-42 -30 -45 -123 -5 -152 29 -22 90 -16 108 9 19 28 7
33 -31 14 -24 -13 -32 -13 -49 -2 -38 25 -24 41 38 44 53 3 57 5 57 28 0 31
-42 74 -72 74 -13 0 -33 -7 -46 -15z"/>
<path d="M4041 3281 c-7 -5 -22 -6 -32 -4 -18 5 -19 -2 -19 -112 0 -89 3 -116
13 -112 6 2 12 17 12 33 1 28 2 29 46 26 55 -4 77 16 80 73 3 55 -7 80 -37 93
-30 14 -44 15 -63 3z"/>
<path d="M4213 3278 c-27 -13 -47 -69 -38 -106 11 -43 34 -62 76 -62 52 0 79
30 79 87 0 73 -55 111 -117 81z"/>
<path d="M4897 3283 c-3 -5 4 -45 17 -88 28 -102 47 -110 71 -30 8 31 20 53
24 50 5 -3 15 -28 22 -55 20 -77 42 -68 68 28 25 93 25 92 7 92 -9 0 -19 -20
-27 -55 -7 -30 -16 -55 -20 -55 -4 0 -12 23 -19 51 -11 45 -32 71 -46 56 -3
-3 -11 -26 -17 -52 -7 -25 -16 -47 -22 -48 -5 -1 -14 20 -21 47 -13 50 -28 74
-37 59z"/>
<path d="M5293 3278 c-13 -6 -23 -20 -23 -30 0 -11 3 -18 8 -16 4 2 20 10 35
18 24 12 30 12 44 -2 21 -21 9 -38 -28 -38 -46 0 -69 -17 -69 -49 0 -40 18
-51 83 -49 l57 2 0 72 c0 48 -4 75 -13 83 -21 17 -69 22 -94 9z"/>
<path d="M5491 3281 c-7 -5 -22 -6 -32 -4 -18 5 -19 -2 -19 -112 0 -89 3 -116
13 -113 6 3 13 18 15 35 3 30 4 31 43 26 57 -8 79 15 79 83 0 45 -4 56 -26 73
-28 22 -51 26 -73 12z"/>
<path d="M5681 3281 c-7 -5 -22 -6 -32 -4 -19 5 -20 0 -17 -107 2 -80 7 -115
16 -118 8 -2 12 8 12 32 0 34 1 35 30 30 69 -14 109 28 97 104 -10 57 -64 90
-106 63z"/>
<path d="M5852 3275 c-42 -30 -45 -123 -5 -152 34 -25 113 -9 113 22 0 18 -1
18 -36 0 -24 -12 -32 -12 -49 -1 -38 25 -24 41 39 44 l58 3 -6 32 c-11 59 -67
84 -114 52z"/>
<path d="M6449 3262 c-6 -15 -13 -39 -16 -55 -9 -43 -21 -41 -34 5 -6 24 -13
49 -15 56 -2 6 -10 12 -18 12 -21 0 25 -164 48 -168 17 -4 19 0 36 66 6 23 14
42 19 42 4 0 14 -24 22 -52 20 -74 42 -76 63 -4 28 95 30 116 13 116 -9 0 -17
-14 -21 -37 -16 -91 -27 -95 -46 -19 -15 63 -36 79 -51 38z"/>
<path d="M6636 3269 c-22 -17 -26 -28 -26 -70 0 -62 23 -89 78 -89 44 0 67 19
75 64 16 90 -60 147 -127 95z"/>
<path d="M7233 3283 l-33 -4 0 -85 c0 -68 3 -84 15 -84 12 0 15 13 15 59 0 63
17 95 49 89 13 -3 17 -18 19 -76 2 -63 5 -73 20 -70 14 3 18 16 20 70 3 58 6
68 24 74 32 10 48 -20 48 -88 0 -45 3 -58 15 -58 12 0 15 14 15 70 0 57 -4 74
-20 90 -23 23 -39 25 -75 8 -19 -9 -28 -9 -37 0 -7 7 -19 11 -27 10 -9 0 -31
-3 -48 -5z"/>
<path d="M7771 3276 c-45 -25 -55 -96 -20 -140 16 -20 29 -26 58 -26 52 0 81
32 81 89 0 73 -58 111 -119 77z"/>
<path d="M8130 3272 c-30 -25 -18 -49 13 -27 27 19 42 19 61 -1 23 -22 11 -34
-34 -34 -50 0 -76 -32 -60 -74 9 -26 12 -26 72 -23 l63 3 3 62 c3 55 0 65 -22
87 -30 30 -65 32 -96 7z"/>
<path d="M8830 3272 c-33 -27 -18 -45 19 -24 24 14 32 14 45 3 29 -24 19 -41
-22 -41 -43 0 -72 -23 -72 -57 0 -32 22 -43 83 -41 l57 2 0 72 c0 64 -3 75
-22 88 -30 21 -61 20 -88 -2z"/>
<path d="M6790 3274 c0 -4 10 -42 22 -85 16 -60 25 -79 39 -79 12 0 20 14 29
50 7 28 16 52 20 55 5 3 17 -19 26 -50 26 -83 49 -71 74 40 5 23 12 49 16 58
4 12 1 17 -10 17 -10 0 -19 -15 -26 -42 -6 -24 -13 -49 -15 -56 -6 -18 -25 -5
-25 17 0 38 -22 81 -41 81 -11 0 -19 -7 -19 -16 0 -25 -22 -94 -30 -94 -4 0
-13 25 -20 55 -8 33 -19 55 -27 55 -7 0 -13 -3 -13 -6z"/>
<path d="M2577 2903 c-4 -3 -7 -21 -7 -39 0 -32 0 -32 -40 -27 -49 7 -77 -14
-86 -64 -7 -38 10 -89 36 -103 10 -5 41 -8 69 -7 l51 2 0 123 c0 112 -5 134
-23 115z"/>
<path d="M1561 2826 c-36 -44 -31 -135 9 -156 33 -17 75 -11 99 14 26 28 10
48 -18 22 -21 -19 -52 -21 -69 -4 -26 26 -13 37 46 40 49 3 57 6 60 24 2 11
-7 32 -18 47 -17 21 -30 27 -60 27 -20 0 -43 -6 -49 -14z"/>
<path d="M1840 2820 c-29 -29 -28 -112 2 -140 29 -27 82 -26 109 1 27 27 10
52 -19 26 -22 -20 -53 -22 -70 -5 -26 26 -13 37 46 40 49 3 57 6 60 24 2 11
-7 32 -18 47 -27 34 -80 37 -110 7z"/>
<path d="M2298 2830 c-26 -16 -42 -75 -29 -112 14 -39 38 -57 77 -58 31 0 64
25 64 48 0 17 -15 15 -30 -3 -23 -28 -80 -13 -80 22 0 8 20 13 58 15 56 3 57
3 55 32 -1 16 -10 37 -19 47 -18 20 -68 25 -96 9z"/>
<path d="M5720 2421 l0 -38 -49 5 c-42 4 -50 1 -65 -19 -19 -27 -21 -97 -3
-120 18 -23 49 -37 72 -32 11 3 32 5 48 4 l27 0 0 119 c0 100 -3 120 -15 120
-11 0 -15 -11 -15 -39z"/>
<path d="M1346 2390 c-11 -3 -52 -5 -93 -3 l-73 3 0 -85 c0 -69 3 -85 15 -85
12 0 15 13 15 58 0 45 5 63 19 76 33 30 50 11 53 -62 2 -54 6 -67 20 -70 14
-3 18 7 20 64 2 49 7 70 20 77 31 20 48 -8 48 -79 0 -50 3 -64 15 -64 12 0 15
15 15 74 0 47 -5 77 -12 83 -21 16 -42 21 -62 13z"/>
<path d="M1954 2390 c-68 -27 -70 -143 -4 -170 57 -24 110 18 110 86 0 66 -51
106 -106 84z"/>
<path d="M2928 2392 l-38 -3 0 -85 c0 -68 3 -84 15 -84 12 0 15 13 15 59 0 61
15 91 46 91 20 0 27 -21 28 -88 1 -45 5 -57 18 -60 14 -3 18 7 20 64 2 49 7
70 20 77 31 20 48 -8 48 -79 0 -51 3 -64 15 -64 13 0 15 13 13 77 -3 70 -5 79
-27 89 -15 8 -34 9 -52 4 -16 -5 -41 -6 -56 -2 -16 4 -45 6 -65 4z"/>
<path d="M3823 2393 c-31 -6 -53 -41 -53 -84 0 -51 8 -67 41 -84 40 -21 57
-19 90 14 48 48 35 130 -24 151 -16 5 -30 9 -31 9 -1 -1 -11 -4 -23 -6z"/>
<path d="M4892 2389 c-22 -8 -39 -35 -30 -45 3 -2 19 3 36 13 25 14 32 15 46
4 28 -24 19 -41 -21 -41 -21 0 -46 -7 -55 -14 -46 -34 4 -112 56 -88 13 6 33
8 45 5 20 -5 21 -2 21 70 0 48 -4 78 -12 84 -21 16 -61 22 -86 12z"/>
<path d="M5459 2388 c-66 -22 -64 -141 3 -169 24 -10 35 -9 64 4 19 9 34 23
34 32 0 20 -19 19 -42 -2 -18 -16 -22 -16 -46 -2 -46 26 -34 44 31 47 55 3 57
4 57 31 0 47 -50 76 -101 59z"/>
<path d="M6014 2392 c-37 -5 -59 -40 -59 -89 0 -37 5 -49 28 -69 15 -13 35
-24 43 -24 25 0 74 30 74 45 0 20 -19 19 -42 -2 -15 -13 -23 -14 -43 -5 -15 7
-25 20 -25 32 0 18 6 20 60 20 65 0 70 6 49 54 -13 27 -51 44 -85 38z"/>
<path d="M6353 2393 c-33 -6 -53 -41 -53 -91 0 -70 57 -110 113 -81 22 12 37
28 37 42 0 13 -23 8 -42 -10 -18 -16 -22 -16 -46 -2 -46 26 -34 44 31 47 52 3
57 5 57 26 0 46 -46 78 -97 69z"/>
<path d="M7981 2388 c-33 -12 -50 -37 -51 -75 0 -73 45 -113 105 -93 31 10 52
36 40 48 -3 3 -19 -2 -36 -12 -28 -17 -32 -17 -55 -1 -38 25 -24 40 39 43 55
3 57 4 57 30 0 15 -4 33 -8 40 -12 19 -64 30 -91 20z"/>
<path d="M8423 2393 c-31 -6 -53 -41 -53 -84 0 -51 8 -67 41 -84 39 -21 53
-19 88 11 26 21 31 33 31 68 0 40 -26 86 -50 86 -4 0 -14 2 -22 4 -7 2 -23 1
-35 -1z"/>
<path d="M1471 2364 c-31 -39 -28 -89 8 -125 16 -16 37 -29 46 -29 26 0 75 29
75 45 0 20 -19 19 -42 -2 -15 -13 -23 -14 -43 -5 -15 7 -25 20 -25 32 0 18 6
20 61 20 l61 0 -7 28 c-11 43 -34 62 -76 62 -29 0 -42 -6 -58 -26z"/>
<path d="M1720 2384 c-1 -2 -1 -49 -1 -104 0 -55 0 -104 1 -110 1 -25 19 -6
22 23 3 33 10 35 53 22 13 -4 30 1 48 15 23 18 27 29 27 74 0 71 -18 86 -93
85 -31 -1 -57 -3 -57 -5z"/>
<path d="M2637 2372 c-17 -19 -23 -85 -11 -117 4 -8 19 -22 35 -30 22 -12 33
-13 54 -3 29 13 38 8 29 -15 -9 -24 -41 -31 -75 -17 -36 15 -49 6 -26 -18 21
-21 91 -22 111 -2 11 11 16 43 17 115 l3 100 -60 3 c-48 2 -64 -1 -77 -16z"/>
<path d="M3580 2273 c0 -94 3 -113 15 -113 11 0 15 11 15 36 0 31 3 35 18 28
32 -14 75 -7 94 16 22 28 24 97 2 128 -13 19 -23 22 -80 20 l-64 -2 0 -113z"/>
<path d="M4490 2379 c0 -6 10 -44 22 -85 16 -56 25 -74 39 -74 12 0 20 14 29
50 7 28 16 52 20 55 5 3 16 -20 25 -51 23 -78 42 -70 71 31 13 44 21 81 19 83
-14 15 -34 -13 -40 -57 -4 -28 -11 -51 -16 -51 -11 0 -13 6 -29 68 -8 31 -16
42 -30 42 -12 0 -20 -7 -20 -16 0 -26 -22 -94 -31 -94 -4 0 -13 25 -20 55 -7
33 -17 55 -26 55 -7 0 -13 -5 -13 -11z"/>
<path d="M5030 2273 c0 -94 3 -113 15 -113 11 0 15 11 15 36 0 31 3 35 18 29
43 -19 61 -17 86 8 31 31 36 99 10 135 -13 19 -23 22 -80 20 l-64 -2 0 -113z"/>
<path d="M5230 2273 c0 -64 4 -113 9 -113 6 0 11 15 13 33 3 33 10 35 53 22
13 -4 30 1 48 15 23 18 27 29 27 74 0 71 -18 87 -94 84 l-56 -2 0 -113z"/>
<path d="M6775 2370 c-27 -29 -25 -105 3 -133 27 -27 83 -28 112 -2 27 25 29
114 2 138 -27 24 -94 22 -117 -3z"/>
<path d="M7146 2371 c-12 -13 -18 -36 -18 -67 0 -54 20 -80 69 -90 26 -5 37
-1 58 20 35 35 25 44 -20 20 -35 -18 -35 -18 -56 3 -30 30 -16 43 47 43 50 0
54 2 54 23 0 12 -7 33 -16 45 -20 29 -93 31 -118 3z"/>
<path d="M7380 2379 c0 -6 10 -44 22 -85 26 -92 48 -99 67 -24 7 27 17 52 22
55 4 3 15 -19 24 -49 26 -87 41 -83 69 19 10 33 19 68 22 78 4 11 0 17 -10 17
-14 0 -36 -54 -36 -87 0 -18 -19 -26 -25 -11 -2 7 -9 32 -15 56 -8 30 -16 42
-29 42 -13 0 -21 -13 -30 -55 -7 -30 -16 -55 -21 -55 -5 0 -14 25 -21 55 -7
33 -17 55 -26 55 -7 0 -13 -5 -13 -11z"/>
<path d="M2655 2007 c-11 -28 0 -230 13 -235 9 -3 12 12 12 53 0 67 13 95 43
95 37 0 47 -19 47 -87 0 -49 3 -63 15 -63 12 0 15 15 15 73 0 91 -16 113 -80
104 -40 -5 -40 -5 -40 28 0 35 -16 56 -25 32z"/>
<path d="M1410 1930 c-28 -28 -28 -108 0 -138 22 -24 68 -29 100 -12 11 6 23
26 29 45 12 44 -2 101 -29 115 -31 16 -78 12 -100 -10z"/>
<path d="M1580 1857 c0 -67 3 -88 13 -85 7 3 13 28 15 63 3 66 15 87 46 83 18
-3 22 -12 26 -73 4 -52 9 -70 20 -70 11 0 13 12 11 52 -3 58 11 93 37 93 31 0
42 -22 42 -87 0 -49 3 -63 15 -63 22 0 21 127 -1 158 -16 24 -62 30 -81 11 -8
-8 -17 -8 -30 -1 -11 6 -40 10 -66 9 l-47 -2 0 -88z"/>
<path d="M1933 1934 c-9 -25 2 -158 15 -162 9 -3 12 13 12 55 0 65 16 97 46
91 16 -3 20 -14 24 -73 4 -53 9 -70 20 -70 11 0 16 17 20 70 5 67 6 70 32 73
31 4 36 -8 40 -92 2 -29 8 -51 16 -54 9 -3 12 16 12 71 0 59 -4 77 -18 90 -21
20 -63 22 -80 5 -8 -8 -15 -8 -25 1 -18 14 -108 10 -114 -5z"/>
<path d="M2237 1936 c-25 -19 -37 -70 -27 -107 11 -39 36 -58 76 -59 36 0 82
36 65 53 -7 7 -16 6 -29 -6 -22 -20 -53 -22 -70 -5 -26 26 -13 37 46 40 49 3
57 6 60 24 2 11 -7 32 -18 47 -24 30 -72 36 -103 13z"/>
<path d="M2854 1929 c-29 -32 -26 -115 5 -140 42 -34 121 -15 121 29 0 17 -15
15 -30 -3 -23 -28 -80 -13 -80 22 0 8 20 13 58 15 56 3 57 3 55 32 -3 42 -30
66 -73 66 -25 0 -43 -7 -56 -21z"/>
<path d="M3093 1934 c-8 -22 2 -219 12 -219 6 0 11 15 13 32 3 32 4 32 46 27
38 -6 45 -3 64 21 28 36 29 94 1 129 -18 23 -26 25 -76 23 -30 -1 -57 -7 -60
-13z"/>
<path d="M3404 1929 c-29 -32 -26 -115 5 -140 32 -26 82 -25 109 4 31 33 31
105 -1 135 -31 29 -87 29 -113 1z"/>
<path d="M3695 1930 c-23 -25 -12 -37 19 -21 32 17 61 10 61 -14 0 -16 -9 -21
-43 -26 -44 -6 -62 -20 -62 -50 0 -31 33 -49 88 -46 l52 2 0 76 c0 45 -5 80
-12 87 -20 20 -83 15 -103 -8z"/>
<path d="M3872 1927 c-30 -31 -30 -95 0 -132 19 -24 26 -27 65 -21 44 6 53 0
31 -22 -15 -15 -64 -16 -73 -2 -9 15 -35 12 -35 -5 0 -34 88 -47 125 -19 18
13 20 27 20 116 l0 101 -56 4 c-48 3 -59 0 -77 -20z"/>
<path d="M4067 1932 c-37 -41 -29 -130 14 -152 31 -17 74 -11 97 13 31 33 31
105 -1 135 -29 28 -87 29 -110 4z"/>
<path d="M4862 1930 c-34 -32 -34 -101 0 -137 44 -48 120 -18 133 51 16 84
-73 141 -133 86z"/>
<path d="M5482 1930 c-17 -16 -22 -32 -22 -70 0 -60 26 -90 77 -90 39 0 82 35
64 53 -7 7 -16 6 -29 -6 -22 -20 -53 -22 -70 -5 -26 26 -13 37 46 40 49 3 57
6 60 24 2 11 -7 32 -18 47 -27 34 -76 37 -108 7z"/>
<path d="M2570 1491 c-8 -6 -17 -8 -21 -5 -4 2 -10 0 -14 -6 -4 -6 -11 -8 -16
-5 -5 4 -9 -280 -9 -734 0 -652 2 -741 15 -741 13 0 15 90 17 743 1 408 4 704
8 657 l6 -85 5 80 c3 44 6 -252 7 -657 l2 -738 245 0 245 0 0 736 c0 688 -1
738 -18 750 -20 16 -447 20 -472 5z"/>
<path d="M3270 1490 c-8 -5 -12 -10 -7 -10 4 0 1 -12 -6 -27 -18 -35 -12 -53
16 -52 22 0 22 0 -1 10 -30 11 -19 29 18 29 15 0 31 6 33 13 4 8 6 7 6 -3 2
-35 101 -94 101 -60 0 6 -6 10 -14 10 -25 0 -28 18 -5 30 17 10 20 9 14 -1 -5
-7 1 -6 15 4 20 14 27 14 49 3 46 -24 75 -30 66 -15 -6 11 -5 11 5 2 9 -9 19
-9 33 -2 13 7 17 8 13 1 -3 -6 3 -13 14 -17 11 -4 18 -11 15 -16 -4 -5 1 -9
10 -9 9 0 13 5 10 10 -3 6 -3 20 0 31 5 15 10 18 18 10 14 -14 30 -15 22 -1
-5 9 50 16 79 11 5 -1 6 7 4 17 -3 11 0 19 8 19 8 0 14 -8 14 -16 0 -19 36
-44 51 -35 10 6 59 -40 59 -57 0 -5 5 -9 10 -9 6 0 10 7 10 15 0 20 16 19 30
-2 10 -16 11 -15 7 5 -4 18 -1 22 21 22 14 0 22 3 19 7 -4 3 -23 6 -43 5 -29
-1 -35 2 -30 14 3 9 6 20 6 25 0 5 5 9 10 9 6 0 9 -6 8 -12 -2 -9 11 -13 40
-12 25 0 38 -3 30 -7 -7 -4 -9 -11 -5 -15 3 -4 12 -2 19 3 22 17 67 22 61 6
-8 -20 10 -15 31 9 16 18 20 19 30 7 6 -8 20 -15 31 -16 33 -4 95 8 95 18 0 6
-4 7 -10 4 -5 -3 -10 -2 -10 4 0 5 5 13 10 16 21 13 8 26 -27 26 -21 0 -147 1
-280 3 -235 2 -242 1 -253 -19 -7 -13 -9 -14 -6 -2 3 9 0 17 -7 18 -64 5 -170
2 -174 -4 -3 -4 -10 -4 -16 1 -17 12 -229 14 -247 2z"/>
<path d="M3100 1160 c0 -278 2 -320 15 -320 17 0 16 -18 17 357 0 144 -3 267
-7 273 -21 34 -25 -14 -25 -310z"/>
<path d="M3691 1353 c4 -22 -2 -44 -10 -38 -5 3 -12 -4 -16 -15 -4 -14 -15
-20 -36 -20 -30 0 -54 -30 -31 -38 7 -2 12 -13 12 -23 0 -11 -4 -17 -10 -14
-14 9 -13 -37 2 -85 9 -27 19 -40 30 -40 19 0 25 25 8 35 -13 8 -13 45 -1 45
5 0 11 10 13 22 2 12 10 23 18 26 12 4 13 2 3 -9 -15 -15 -17 -49 -4 -49 5 0
12 6 14 13 3 7 6 5 6 -5 1 -16 12 -23 34 -19 4 0 7 -4 7 -10 0 -6 -7 -9 -14
-6 -10 4 -13 1 -10 -8 3 -8 25 -15 53 -17 48 -3 48 -3 32 19 -13 17 -18 18
-24 7 -5 -8 -12 -12 -18 -9 -15 10 18 36 35 29 9 -3 16 -9 16 -13 0 -3 25 -4
55 -3 41 3 59 9 69 23 8 12 20 17 29 13 13 -4 15 0 12 23 -2 15 -4 30 -5 33
-2 3 -2 9 -1 14 1 5 -4 13 -11 18 -10 6 -10 10 2 18 13 10 13 11 0 9 -38 -4
-60 2 -60 17 0 8 -5 12 -11 9 -6 -4 -13 2 -16 13 -8 32 -32 35 -39 5 -6 -23
-8 -24 -19 -10 -7 9 -15 14 -18 10 -4 -3 -18 2 -32 11 -14 9 -25 14 -25 11 0
-3 -9 -1 -20 5 -11 6 -20 7 -19 3z"/>
<path d="M43 955 c-8 -12 -13 -15 -13 -6 0 11 -3 11 -15 1 -19 -16 -19 -66 0
-74 8 -3 15 -11 15 -18 0 -10 -2 -10 -9 0 -6 10 -10 7 -15 -13 -4 -15 -3 -32
2 -38 5 -7 12 -24 16 -39 6 -26 26 -40 26 -18 0 6 16 8 35 5 29 -3 35 -1 33
12 -2 11 10 19 39 28 29 9 42 9 40 2 -4 -21 29 -17 57 8 16 14 25 25 19 25 -5
0 -10 7 -10 15 0 13 3 13 19 -2 10 -9 18 -24 18 -35 0 -23 35 -24 58 -2 15 15
17 15 26 -5 11 -25 52 -39 69 -22 15 15 27 14 27 -4 0 -22 33 -18 53 5 14 16
21 18 36 10 27 -14 31 -13 31 9 0 10 7 24 15 31 22 19 15 77 -12 91 -12 6 -19
18 -16 25 7 18 -6 18 -50 -1 -47 -19 -47 -19 -47 8 0 12 -3 17 -8 11 -4 -6
-28 -13 -54 -16 -37 -4 -48 -2 -48 8 0 21 -17 17 -34 -8 -9 -12 -16 -17 -16
-10 0 24 -15 11 -33 -28 -10 -22 -22 -40 -27 -40 -7 0 -24 57 -21 73 0 4 -3 7
-8 7 -5 0 -17 3 -27 7 -12 4 -15 3 -10 -5 4 -7 3 -12 -3 -12 -5 0 -12 6 -14
13 -4 8 -8 9 -14 1 -4 -6 -21 -13 -36 -16 -21 -4 -27 -2 -23 8 7 19 -8 18 -24
-1 -18 -21 -28 -19 -32 8 -3 22 -3 22 -15 2z"/>
</g>
</svg>
